<?xml version="1.0" encoding="UTF-8"?>
<svg width="32" height="32" viewBox="0 0 32 32" xmlns="http://www.w3.org/2000/svg">
  <defs>
    <!-- Main gradient for the background -->
    <linearGradient id="bgGradient" x1="0%" y1="0%" x2="100%" y2="100%">
      <stop offset="0%" stop-color="#0F172A"/>
      <stop offset="100%" stop-color="#1E293B"/>
    </linearGradient>
    
    <!-- Sophisticated gradient for the 'S' symbol -->
    <linearGradient id="symbolGradient" x1="0%" y1="0%" x2="100%" y2="100%">
      <stop offset="0%" stop-color="#4A00E0"/>
      <stop offset="50%" stop-color="#6D28D9"/>
      <stop offset="100%" stop-color="#8E2DE2"/>
    </linearGradient>
    
    <!-- Glow effect -->
    <filter id="glow" x="-20%" y="-20%" width="140%" height="140%">
      <feGaussianBlur stdDeviation="1" result="glow"/>
      <feMerge>
        <feMergeNode in="glow"/>
        <feMergeNode in="SourceGraphic"/>
      </feMerge>
    </filter>
  </defs>
  
  <!-- Background with rounded corners -->
  <rect width="32" height="32" fill="url(#bgGradient)" rx="8" ry="8"/>
  
  <!-- Modern 'S' symbol with improved design -->
  <path 
    d="M11 8.5C11 8.5 16 8 20 8.5C24 9 24.5 11 24.5 12.5C24.5 14 23.5 15.5 21 16C18.5 16.5 14 16.5 14 16.5L18 16C21 16 23 17 23 19C23 21 21 23 17.5 23.5C14 24 11 23.5 8 23"
    stroke="url(#symbolGradient)"
    fill="none"
    stroke-width="3"
    stroke-linecap="round"
    stroke-linejoin="round"
    filter="url(#glow)"
  />
  
  <!-- Subtle highlight -->
  <circle cx="24" cy="8" r="1" fill="#A855F7" opacity="0.6"/>
</svg> 